<svg width="171" height="171" viewBox="0 0 171 171" fill="none" xmlns="http://www.w3.org/2000/svg">
<g filter="url(#filter0_df)">
<path fill-rule="evenodd" clip-rule="evenodd" d="M58.3723 76.3896C58.2597 76.2896 58.0999 76.2641 57.9659 76.3235C55.4535 77.4365 52.7234 78.2525 49.8207 78.7121C33.3613 81.3178 17.7479 71.4476 14.8664 56.7756C11.9849 42.1037 22.8968 28.0342 39.3562 25.4285C55.6815 22.844 71.1746 32.5331 74.2375 47.0075C74.2762 47.1901 74.4446 47.3236 74.6318 47.3157L75.1616 47.2934C75.1994 47.2918 75.2262 47.2581 75.219 47.2211V47.2211C72.2231 31.9669 56.0513 21.8548 39.1789 24.5259C22.3065 27.197 10.9621 41.6652 13.9579 56.9194C16.9537 72.1737 33.1255 82.2857 49.998 79.6147C53.0077 79.1382 55.8415 78.2863 58.4494 77.1216C58.6859 77.016 58.725 76.7028 58.526 76.5261L58.3723 76.3896Z" fill="white"/>
<path d="M39.3562 25.4285L39.8506 27.946L39.3562 25.4285ZM58.4494 77.1216L57.3185 74.7926L58.4494 77.1216ZM58.526 76.5261L56.8369 78.3951L58.526 76.5261ZM75.1616 47.2934L74.9626 44.7465L75.1616 47.2934ZM74.6318 47.3157L74.4328 44.7688L74.6318 47.3157ZM57.9659 76.3235L56.8418 73.9914L57.9659 76.3235ZM58.3723 76.3896L56.6831 78.2586L58.3723 76.3896ZM50.3151 81.2295C53.4363 80.7354 56.378 79.8569 59.09 78.6555L56.8418 73.9914C54.529 75.016 52.0104 75.7696 49.3263 76.1946L50.3151 81.2295ZM12.3324 57.1768C15.5326 73.4717 32.7025 84.0178 50.3151 81.2295L49.3263 76.1946C34.0202 78.6177 19.9632 69.4234 17.4004 56.3744L12.3324 57.1768ZM38.8617 22.911C21.2491 25.6993 9.13217 40.8818 12.3324 57.1768L17.4004 56.3744C14.8377 43.3255 24.5445 30.3691 39.8506 27.946L38.8617 22.911ZM76.7641 46.5696C73.363 30.4973 56.3333 20.1451 38.8617 22.911L39.8506 27.946C55.0298 25.543 68.9862 34.5689 71.711 47.4454L76.7641 46.5696ZM74.8308 49.8627L75.3606 49.8404L74.9626 44.7465L74.4328 44.7688L74.8308 49.8627ZM39.6733 27.0434C55.3949 24.5545 70.0083 33.9932 72.6849 47.6223L77.753 46.82C74.438 29.9406 56.7078 19.1551 38.6845 22.0084L39.6733 27.0434ZM16.4919 56.5183C13.8152 42.8892 23.9518 29.5323 39.6733 27.0434L38.6845 22.0084C20.6612 24.8617 8.10886 40.4412 11.4239 57.3206L16.4919 56.5183ZM49.5035 77.0972C33.782 79.5861 19.1686 70.1474 16.4919 56.5183L11.4239 57.3206C14.7388 74.2 32.4691 84.9854 50.4924 82.1321L49.5035 77.0972ZM57.3185 74.7926C54.9118 75.8674 52.2919 76.6557 49.5035 77.0972L50.4924 82.1321C53.7234 81.6206 56.7712 80.7052 59.5803 79.4506L57.3185 74.7926ZM60.2152 74.6572L60.0614 74.5206L56.6831 78.2586L56.8369 78.3951L60.2152 74.6572ZM59.5803 79.4506C61.5129 78.5875 61.7896 76.0551 60.2152 74.6572L56.8369 78.3951C55.6604 77.3505 55.859 75.4444 57.3185 74.7926L59.5803 79.4506ZM75.3606 49.8404C76.9328 49.7743 78.0568 48.367 77.753 46.82L72.6849 47.6223C72.3956 46.1492 73.4659 44.8094 74.9626 44.7465L75.3606 49.8404ZM71.711 47.4454C72.0096 48.8568 73.3182 49.9263 74.8308 49.8627L74.4328 44.7688C75.5709 44.7209 76.5427 45.5235 76.7641 46.5696L71.711 47.4454ZM59.09 78.6555C58.306 79.0028 57.3583 78.8581 56.6831 78.2586L60.0614 74.5206C59.1611 73.7212 57.8937 73.5254 56.8418 73.9914L59.09 78.6555Z" fill="#FFFDCD"/>
</g>
<g filter="url(#filter1_df)">
<path fill-rule="evenodd" clip-rule="evenodd" d="M58.3723 76.5911C58.2597 76.4912 58.0999 76.4656 57.9659 76.525C55.4535 77.638 52.7234 78.4541 49.8207 78.9136C33.3613 81.5193 17.7479 71.6491 14.8664 56.9771C11.9849 42.3052 22.8968 28.2358 39.3562 25.6301C55.6815 23.0456 71.1746 32.7346 74.2375 47.209C74.2762 47.3917 74.4446 47.5251 74.6318 47.5173L75.1616 47.495C75.1994 47.4934 75.2262 47.4596 75.219 47.4227V47.4227C72.2231 32.1684 56.0513 22.0564 39.1789 24.7275C22.3065 27.3985 10.9621 41.8667 13.9579 57.121C16.9537 72.3752 33.1255 82.4873 49.998 79.8162C53.0077 79.3397 55.8415 78.4879 58.4494 77.3231C58.6859 77.2175 58.725 76.9043 58.526 76.7277L58.3723 76.5911Z" fill="white"/>
<path d="M58.4494 77.3231L57.3185 74.9941L58.4494 77.3231ZM58.526 76.7277L60.2152 74.8587L58.526 76.7277ZM75.1616 47.495L74.9626 44.948L75.1616 47.495ZM74.6318 47.5173L74.4328 44.9703L74.6318 47.5173ZM57.9659 76.525L56.8418 74.1929L57.9659 76.525ZM58.3723 76.5911L60.0614 74.7222L58.3723 76.5911ZM50.3151 81.4311C53.4363 80.937 56.378 80.0585 59.09 78.857L56.8418 74.1929C54.529 75.2176 52.0104 75.9712 49.3263 76.3961L50.3151 81.4311ZM12.3324 57.3783C15.5326 73.6732 32.7025 84.2194 50.3151 81.4311L49.3263 76.3961C34.0202 78.8192 19.9632 69.6249 17.4004 56.576L12.3324 57.3783ZM38.8617 23.1126C21.2491 25.9008 9.13217 41.0834 12.3324 57.3783L17.4004 56.576C14.8377 43.527 24.5445 30.5707 39.8506 28.1475L38.8617 23.1126ZM76.7641 46.7711C73.363 30.6988 56.3333 20.3466 38.8617 23.1126L39.8506 28.1475C55.0298 25.7445 68.9862 34.7705 71.711 47.647L76.7641 46.7711ZM74.8308 50.0642L75.3606 50.0419L74.9626 44.948L74.4328 44.9703L74.8308 50.0642ZM39.6733 27.2449C55.3949 24.7561 70.0083 34.1947 72.6849 47.8238L77.753 47.0215C74.438 30.1421 56.7078 19.3567 38.6845 22.21L39.6733 27.2449ZM16.4919 56.7198C13.8152 43.0907 23.9518 29.7338 39.6733 27.2449L38.6845 22.21C20.6612 25.0632 8.10886 40.6428 11.4239 57.5221L16.4919 56.7198ZM49.5035 77.2987C33.782 79.7876 19.1686 70.3489 16.4919 56.7198L11.4239 57.5221C14.7388 74.4015 32.4691 85.187 50.4924 82.3337L49.5035 77.2987ZM57.3185 74.9941C54.9118 76.069 52.2919 76.8573 49.5035 77.2987L50.4924 82.3337C53.7234 81.8222 56.7712 80.9067 59.5803 79.6521L57.3185 74.9941ZM60.2152 74.8587L60.0614 74.7222L56.6831 78.4601L56.8369 78.5966L60.2152 74.8587ZM59.5803 79.6521C61.5129 78.789 61.7896 76.2566 60.2152 74.8587L56.8369 78.5966C55.6604 77.552 55.859 75.646 57.3185 74.9941L59.5803 79.6521ZM75.3606 50.0419C76.9328 49.9758 78.0568 48.5685 77.753 47.0215L72.6849 47.8238C72.3956 46.3507 73.4659 45.011 74.9626 44.948L75.3606 50.0419ZM71.711 47.647C72.0096 49.0583 73.3182 50.1278 74.8308 50.0642L74.4328 44.9703C75.5709 44.9224 76.5427 45.7251 76.7641 46.7711L71.711 47.647ZM59.09 78.857C58.306 79.2043 57.3583 79.0596 56.6831 78.4601L60.0614 74.7222C59.1611 73.9227 57.8937 73.7269 56.8418 74.1929L59.09 78.857Z" fill="#FFFDCD"/>
</g>
<g filter="url(#filter2_ddf)">
<path fill-rule="evenodd" clip-rule="evenodd" d="M142.838 19.2214L128.598 42.9108C128.212 43.554 127.351 43.8101 126.675 43.4829C126 43.1557 125.766 42.369 126.153 41.7259L140.139 18.4578C140.023 17.8732 140.331 17.2877 140.924 17.0581L140.998 17.0292L141.028 16.9804C141.382 16.3906 142.135 16.1263 142.779 16.3389L156.751 10.9217C157.451 10.6505 158.282 10.9788 158.607 11.655C158.932 12.3313 158.629 13.0994 157.929 13.3707L142.838 19.2214Z" fill="white"/>
<path d="M142.838 19.2214L142.375 18.0254L141.965 18.1841L141.739 18.5605L142.838 19.2214ZM128.598 42.9108L127.499 42.25L127.499 42.25L128.598 42.9108ZM126.675 43.4829L127.235 42.3285L127.235 42.3285L126.675 43.4829ZM126.153 41.7259L125.053 41.065L125.053 41.065L126.153 41.7259ZM140.139 18.4578L141.239 19.1187L141.494 18.6936L141.398 18.2071L140.139 18.4578ZM140.924 17.0581L140.46 15.862L140.46 15.862L140.924 17.0581ZM140.998 17.0292L141.462 18.2252L141.871 18.0665L142.098 17.6901L140.998 17.0292ZM141.028 16.9804L139.928 16.3195L139.928 16.3195L141.028 16.9804ZM142.779 16.3389L142.376 17.5569L142.813 17.7013L143.242 17.5349L142.779 16.3389ZM156.751 10.9217L157.215 12.1178L157.215 12.1178L156.751 10.9217ZM158.607 11.655L157.451 12.2111L157.451 12.2111L158.607 11.655ZM157.929 13.3707L157.465 12.1746L157.465 12.1746L157.929 13.3707ZM141.739 18.5605L127.499 42.25L129.698 43.5717L143.938 19.8823L141.739 18.5605ZM127.499 42.25C127.485 42.2734 127.448 42.3109 127.379 42.3312C127.311 42.3516 127.259 42.3404 127.235 42.3285L126.116 44.6373C127.389 45.254 128.969 44.7838 129.698 43.5717L127.499 42.25ZM127.235 42.3285C127.223 42.3226 127.224 42.3206 127.23 42.3277C127.235 42.3342 127.242 42.3443 127.245 42.3571C127.249 42.3698 127.25 42.3816 127.248 42.3901C127.247 42.3993 127.245 42.3982 127.252 42.3868L125.053 41.065C124.278 42.3544 124.762 43.9813 126.116 44.6373L127.235 42.3285ZM127.252 42.3868L141.239 19.1187L139.04 17.7969L125.053 41.065L127.252 42.3868ZM141.398 18.2071C141.398 18.2083 141.398 18.2134 141.397 18.2211C141.396 18.2286 141.394 18.2363 141.39 18.2433C141.386 18.2505 141.381 18.2554 141.378 18.258C141.375 18.2608 141.377 18.2583 141.387 18.2541L140.46 15.862C139.289 16.3161 138.643 17.5106 138.881 18.7084L141.398 18.2071ZM141.387 18.2541L141.462 18.2252L140.534 15.8331L140.46 15.862L141.387 18.2541ZM142.098 17.6901L142.127 17.6413L139.928 16.3195L139.899 16.3683L142.098 17.6901ZM142.127 17.6413C142.14 17.6199 142.171 17.5867 142.231 17.5651C142.292 17.543 142.346 17.5468 142.376 17.5569L143.181 15.1208C141.986 14.7258 140.601 15.2006 139.928 16.3195L142.127 17.6413ZM143.242 17.5349L157.215 12.1178L156.288 9.72567L142.315 15.1428L143.242 17.5349ZM157.215 12.1178C157.24 12.1082 157.288 12.1021 157.348 12.1261C157.409 12.1501 157.44 12.1873 157.451 12.2111L159.763 11.099C159.148 9.81945 157.611 9.21241 156.288 9.72567L157.215 12.1178ZM157.451 12.2111C157.457 12.223 157.455 12.2249 157.455 12.2178C157.455 12.2114 157.456 12.2027 157.459 12.1933C157.463 12.184 157.468 12.1768 157.473 12.1723C157.478 12.1673 157.478 12.1699 157.465 12.1746L158.393 14.5667C159.79 14.0251 160.413 12.4495 159.763 11.099L157.451 12.2111ZM157.465 12.1746L142.375 18.0254L143.302 20.4175L158.393 14.5667L157.465 12.1746Z" fill="white"/>
</g>
<g filter="url(#filter3_df)">
<path fill-rule="evenodd" clip-rule="evenodd" d="M106.091 116.288C105.496 116.288 104.991 116.671 104.807 117.203L56.7194 55.0308L154.373 55.0308L137.133 76.9814L140.527 77.0597L157.891 54.951C158.731 53.8811 157.969 52.3134 156.609 52.3134L54.5045 52.3134C53.1497 52.3134 52.3859 53.8698 53.2147 54.9414L103.875 120.441C104.103 120.735 104.406 120.927 104.733 121.016L104.733 156.143C104.733 156.325 104.769 156.499 104.834 156.657H83.7705C83.0201 156.657 82.4118 157.266 82.4118 158.016C82.4118 158.766 83.0201 159.375 83.7705 159.375H126.957C127.707 159.375 128.315 158.766 128.315 158.016C128.315 157.266 127.707 156.657 126.957 156.657H107.349C107.414 156.499 107.45 156.325 107.45 156.143L107.45 119.173L127.843 93.2084L126.49 90.5313L106.253 116.297C106.2 116.291 106.146 116.288 106.091 116.288Z" fill="white"/>
</g>
<g filter="url(#filter4_df)">
<path fill-rule="evenodd" clip-rule="evenodd" d="M106.176 115.96C105.581 115.96 105.075 116.343 104.891 116.875L56.8041 54.703L154.458 54.703L136.772 77.2209L140.166 77.2992L157.976 54.6231C158.816 53.5532 158.054 51.9855 156.694 51.9855L54.5892 51.9855C53.2344 51.9855 52.4706 53.5419 53.2995 54.6135L103.96 120.113C104.188 120.407 104.491 120.599 104.817 120.688L104.817 155.815C104.817 155.997 104.853 156.171 104.918 156.329L83.8553 156.329C83.1048 156.329 82.4965 156.938 82.4965 157.688C82.4965 158.439 83.1048 159.047 83.8553 159.047L127.041 159.047C127.792 159.047 128.4 158.439 128.4 157.688C128.4 156.938 127.792 156.329 127.041 156.329L107.434 156.329C107.499 156.171 107.535 155.997 107.535 155.815L107.535 118.845L127.382 93.5759L126.029 90.8988L106.338 115.97C106.285 115.963 106.231 115.96 106.176 115.96Z" fill="white"/>
<path d="M104.891 116.875L103.877 117.66L105.329 119.538L106.104 117.294L104.891 116.875ZM56.8041 54.703V53.4202H54.1902L55.7894 55.4878L56.8041 54.703ZM154.458 54.703L155.466 55.4953L157.096 53.4202H154.458V54.703ZM136.772 77.2209L135.763 76.4285L134.18 78.4442L136.742 78.5033L136.772 77.2209ZM140.166 77.2992L140.136 78.5816L140.778 78.5964L141.175 78.0915L140.166 77.2992ZM157.976 54.6231L156.967 53.8307L156.967 53.8307L157.976 54.6231ZM53.2995 54.6135L54.3142 53.8287L54.3142 53.8287L53.2995 54.6135ZM103.96 120.113L104.975 119.328L104.975 119.328L103.96 120.113ZM104.817 120.688L106.1 120.688L106.1 119.708L105.155 119.45L104.817 120.688ZM104.817 155.815L106.1 155.815L106.1 155.815L104.817 155.815ZM104.918 156.329V157.612H106.83L106.105 155.843L104.918 156.329ZM83.8553 156.329L83.8553 157.612L83.8553 156.329ZM83.8553 159.047V160.33V159.047ZM127.041 159.047V157.764V159.047ZM127.041 156.329V157.612V156.329ZM107.434 156.329L106.247 155.843L105.523 157.612H107.434V156.329ZM107.535 155.815L108.818 155.815L108.818 155.815L107.535 155.815ZM107.535 118.845L106.526 118.053L106.252 118.402L106.252 118.845L107.535 118.845ZM127.382 93.5759L128.391 94.3682L128.895 93.7261L128.527 92.9973L127.382 93.5759ZM126.029 90.8988L127.174 90.3202L126.265 88.5215L125.02 90.1064L126.029 90.8988ZM106.338 115.97L106.187 117.243L106.902 117.328L107.347 116.762L106.338 115.97ZM106.104 117.294C106.109 117.281 106.118 117.267 106.132 117.257C106.145 117.248 106.158 117.243 106.176 117.243V114.677C105.017 114.677 104.036 115.423 103.679 116.457L106.104 117.294ZM55.7894 55.4878L103.877 117.66L105.906 116.091L57.8188 53.9181L55.7894 55.4878ZM154.458 53.4202L56.8041 53.4202V55.9858L154.458 55.9858V53.4202ZM137.781 78.0132L155.466 55.4953L153.449 53.9106L135.763 76.4285L137.781 78.0132ZM136.742 78.5033L140.136 78.5816L140.195 76.0167L136.801 75.9384L136.742 78.5033ZM156.967 53.8307L139.157 76.5068L141.175 78.0915L158.985 55.4154L156.967 53.8307ZM156.694 53.2683C156.984 53.2683 157.146 53.6026 156.967 53.8307L158.985 55.4154C160.486 53.5039 159.124 50.7027 156.694 50.7027V53.2683ZM54.5892 53.2683L156.694 53.2683V50.7027L54.5892 50.7027V53.2683ZM54.3142 53.8287C54.1374 53.6002 54.3003 53.2683 54.5892 53.2683V50.7027C52.1686 50.7027 50.8038 53.4836 52.2848 55.3983L54.3142 53.8287ZM104.975 119.328L54.3142 53.8287L52.2848 55.3983L102.945 120.897L104.975 119.328ZM105.155 119.45C105.088 119.432 105.026 119.394 104.975 119.328L102.945 120.897C103.349 121.42 103.894 121.766 104.48 121.925L105.155 119.45ZM106.1 155.815L106.1 120.688L103.535 120.688L103.535 155.815L106.1 155.815ZM106.105 155.843C106.102 155.836 106.1 155.827 106.1 155.815H103.535C103.535 156.167 103.604 156.505 103.731 156.816L106.105 155.843ZM83.8553 157.612L104.918 157.612V155.047L83.8553 155.047L83.8553 157.612ZM83.7793 157.688C83.7793 157.646 83.8133 157.612 83.8553 157.612V155.047C82.3964 155.047 81.2137 156.229 81.2137 157.688H83.7793ZM83.8553 157.764C83.8133 157.764 83.7793 157.73 83.7793 157.688H81.2137C81.2137 159.147 82.3964 160.33 83.8553 160.33V157.764ZM127.041 157.764L83.8553 157.764V160.33L127.041 160.33V157.764ZM127.117 157.688C127.117 157.73 127.083 157.764 127.041 157.764V160.33C128.5 160.33 129.683 159.147 129.683 157.688H127.117ZM127.041 157.612C127.083 157.612 127.117 157.646 127.117 157.688H129.683C129.683 156.229 128.5 155.047 127.041 155.047V157.612ZM107.434 157.612L127.041 157.612L127.041 155.047L107.434 155.047L107.434 157.612ZM106.252 155.815C106.252 155.827 106.25 155.836 106.247 155.843L108.621 156.816C108.748 156.505 108.818 156.167 108.818 155.815H106.252ZM106.252 118.845L106.252 155.815L108.818 155.815L108.818 118.845L106.252 118.845ZM126.373 92.7835L106.526 118.053L108.544 119.638L128.391 94.3682L126.373 92.7835ZM128.527 92.9973L127.174 90.3202L124.884 91.4773L126.237 94.1544L128.527 92.9973ZM107.347 116.762L127.038 91.6911L125.02 90.1064L105.329 115.177L107.347 116.762ZM106.176 117.243C106.18 117.243 106.184 117.243 106.187 117.243L106.489 114.696C106.386 114.683 106.282 114.677 106.176 114.677V117.243Z" fill="white"/>
</g>
<defs>
<filter id="filter0_df" x="0.629568" y="11.2893" width="87.4355" height="81.5619" filterUnits="userSpaceOnUse" color-interpolation-filters="sRGB">
<feFlood flood-opacity="0" result="BackgroundImageFix"/>
<feColorMatrix in="SourceAlpha" type="matrix" values="0 0 0 0 0 0 0 0 0 0 0 0 0 0 0 0 0 0 127 0"/>
<feOffset/>
<feGaussianBlur stdDeviation="5.13117"/>
<feColorMatrix type="matrix" values="0 0 0 0 0.981333 0 0 0 0 1 0 0 0 0 0.0666667 0 0 0 1 0"/>
<feBlend mode="normal" in2="BackgroundImageFix" result="effect1_dropShadow"/>
<feBlend mode="normal" in="SourceGraphic" in2="effect1_dropShadow" result="shape"/>
<feGaussianBlur stdDeviation="0.0133967" result="effect2_foregroundBlur"/>
</filter>
<filter id="filter1_df" x="0.629568" y="11.4908" width="87.4355" height="81.5619" filterUnits="userSpaceOnUse" color-interpolation-filters="sRGB">
<feFlood flood-opacity="0" result="BackgroundImageFix"/>
<feColorMatrix in="SourceAlpha" type="matrix" values="0 0 0 0 0 0 0 0 0 0 0 0 0 0 0 0 0 0 127 0"/>
<feOffset/>
<feGaussianBlur stdDeviation="5.13117"/>
<feColorMatrix type="matrix" values="0 0 0 0 0.981333 0 0 0 0 1 0 0 0 0 0.0666667 0 0 0 1 0"/>
<feBlend mode="normal" in2="BackgroundImageFix" result="effect1_dropShadow"/>
<feBlend mode="normal" in="SourceGraphic" in2="effect1_dropShadow" result="shape"/>
<feGaussianBlur stdDeviation="0.0133967" result="effect2_foregroundBlur"/>
</filter>
<filter id="filter2_ddf" x="114.421" y="0.0509158" width="55.8624" height="55.8893" filterUnits="userSpaceOnUse" color-interpolation-filters="sRGB">
<feFlood flood-opacity="0" result="BackgroundImageFix"/>
<feColorMatrix in="SourceAlpha" type="matrix" values="0 0 0 0 0 0 0 0 0 0 0 0 0 0 0 0 0 0 127 0"/>
<feOffset dy="0.769675"/>
<feGaussianBlur stdDeviation="5.13117"/>
<feColorMatrix type="matrix" values="0 0 0 0 1 0 0 0 0 0 0 0 0 0 0.9 0 0 0 1 0"/>
<feBlend mode="normal" in2="BackgroundImageFix" result="effect1_dropShadow"/>
<feColorMatrix in="SourceAlpha" type="matrix" values="0 0 0 0 0 0 0 0 0 0 0 0 0 0 0 0 0 0 127 0"/>
<feOffset dy="0.769675"/>
<feGaussianBlur stdDeviation="5.13117"/>
<feColorMatrix type="matrix" values="0 0 0 0 1 0 0 0 0 0 0 0 0 0 0.9 0 0 0 1 0"/>
<feBlend mode="normal" in2="effect1_dropShadow" result="effect2_dropShadow"/>
<feBlend mode="normal" in="SourceGraphic" in2="effect2_dropShadow" result="shape"/>
<feGaussianBlur stdDeviation="0.0747311" result="effect3_foregroundBlur"/>
</filter>
<filter id="filter3_df" x="42.6086" y="42.051" width="125.896" height="127.586" filterUnits="userSpaceOnUse" color-interpolation-filters="sRGB">
<feFlood flood-opacity="0" result="BackgroundImageFix"/>
<feColorMatrix in="SourceAlpha" type="matrix" values="0 0 0 0 0 0 0 0 0 0 0 0 0 0 0 0 0 0 127 0"/>
<feOffset/>
<feGaussianBlur stdDeviation="5.13117"/>
<feColorMatrix type="matrix" values="0 0 0 0 0 0 0 0 0 0.94 0 0 0 0 1 0 0 0 1 0"/>
<feBlend mode="normal" in2="BackgroundImageFix" result="effect1_dropShadow"/>
<feBlend mode="normal" in="SourceGraphic" in2="effect1_dropShadow" result="shape"/>
<feGaussianBlur stdDeviation="0.0747311" result="effect2_foregroundBlur"/>
</filter>
<filter id="filter4_df" x="41.4082" y="40.4403" width="128.466" height="130.152" filterUnits="userSpaceOnUse" color-interpolation-filters="sRGB">
<feFlood flood-opacity="0" result="BackgroundImageFix"/>
<feColorMatrix in="SourceAlpha" type="matrix" values="0 0 0 0 0 0 0 0 0 0 0 0 0 0 0 0 0 0 127 0"/>
<feOffset/>
<feGaussianBlur stdDeviation="5.13117"/>
<feColorMatrix type="matrix" values="0 0 0 0 0 0 0 0 0 1 0 0 0 0 0.94 0 0 0 1 0"/>
<feBlend mode="normal" in2="BackgroundImageFix" result="effect1_dropShadow"/>
<feBlend mode="normal" in="SourceGraphic" in2="effect1_dropShadow" result="shape"/>
<feGaussianBlur stdDeviation="0.0747311" result="effect2_foregroundBlur"/>
</filter>
</defs>
</svg>
